<?xml version="1.0" standalone="no"?>
<!DOCTYPE svg PUBLIC "-//W3C//DTD SVG 20010904//EN"
 "http://www.w3.org/TR/2001/REC-SVG-20010904/DTD/svg10.dtd">
<svg version="1.0" xmlns="http://www.w3.org/2000/svg"
 width="1030.000000pt" height="702.000000pt" viewBox="0 0 1030.000000 702.000000"
 preserveAspectRatio="xMidYMid meet">

<g transform="translate(0.000000,702.000000) scale(0.100000,-0.100000)"
fill="#000000" stroke="none">
<path d="M4740 6497 c-132 -36 -221 -88 -321 -187 -69 -68 -94 -102 -127 -170
-58 -118 -76 -193 -76 -325 0 -132 18 -207 76 -325 59 -120 178 -239 298 -297
126 -61 206 -77 353 -70 201 8 341 70 483 212 130 130 194 286 194 475 0 116
-20 198 -75 316 -80 166 -239 305 -413 361 -116 37 -278 41 -392 10z"/>
<path d="M2839 6240 c-208 -33 -358 -158 -437 -368 -22 -57 -26 -83 -26 -177
1 -163 43 -280 140 -385 163 -175 403 -223 616 -122 109 51 173 104 231 188
126 184 139 419 33 592 -41 68 -131 158 -201 201 -94 59 -243 88 -356 71z"/>
<path d="M6730 6221 c-182 -47 -325 -178 -388 -355 -22 -61 -26 -88 -25 -186
0 -99 4 -124 26 -183 72 -187 217 -312 406 -352 89 -19 117 -19 206 0 197 41
362 194 420 390 19 65 19 235 0 298 -43 143 -166 288 -296 350 -125 59 -226
70 -349 38z"/>
<path d="M2620 4748 c0 -4 73 -99 163 -210 173 -217 285 -359 330 -420 l27
-38 713 -2 712 -3 5 -1440 5 -1440 130 -7 c127 -8 388 -3 492 9 l53 5 2 1437
3 1436 707 5 c645 5 708 6 720 22 7 9 71 92 143 185 151 196 273 350 327 412
21 24 38 47 38 50 0 3 -1028 6 -2285 6 -1257 0 -2285 -3 -2285 -7z"/>
<path d="M1856 4302 c-5 -9 -56 -341 -56 -367 0 -17 16 -24 105 -50 340 -96
769 -339 1110 -629 303 -258 526 -504 817 -908 127 -175 477 -620 498 -633 14
-9 13 28 -5 175 -16 128 -36 244 -61 338 -55 215 -190 519 -310 697 -418 624
-964 1007 -1883 1319 -204 70 -207 71 -215 58z"/>
<path d="M7765 4238 c-647 -258 -821 -342 -1105 -536 -417 -283 -766 -671
-949 -1056 -102 -213 -175 -446 -211 -671 -12 -71 -25 -155 -30 -185 -4 -30
-5 -59 0 -63 4 -5 47 38 96 94 49 56 113 130 143 163 29 34 135 169 234 301
294 391 348 455 547 659 239 245 439 413 680 572 263 172 513 299 740 374 l85
28 -2 64 c-5 105 -46 313 -63 314 -8 1 -82 -25 -165 -58z"/>
<path d="M1787 3693 c-14 -13 -7 -575 8 -713 36 -323 94 -555 202 -814 210
-499 511 -894 945 -1240 500 -398 1105 -624 1787 -667 284 -19 551 3 841 67
378 83 755 243 1085 459 353 231 713 604 953 987 116 185 229 447 305 708 96
327 126 593 112 996 -6 161 -11 214 -20 214 -7 0 -25 -45 -43 -107 -17 -60
-56 -198 -87 -307 -122 -433 -257 -747 -442 -1031 -473 -723 -1237 -1248
-2018 -1384 -60 -11 -166 -24 -235 -31 -69 -6 -158 -16 -199 -21 -47 -6 -105
-6 -160 1 -47 5 -152 17 -232 25 -230 23 -455 73 -659 146 -123 44 -448 206
-568 283 -293 187 -594 457 -803 721 -323 408 -492 768 -664 1415 -77 292 -86
315 -108 293z"/>
<path d="M2080 3520 c0 -19 126 -332 177 -440 28 -58 61 -127 73 -155 41 -85
159 -285 238 -400 213 -312 520 -638 789 -837 288 -214 571 -357 876 -443 133
-37 147 -40 147 -27 0 15 -277 350 -497 601 -119 135 -264 304 -322 375 -152
185 -341 406 -440 515 -173 189 -485 465 -686 607 -149 106 -355 224 -355 204z"/>
<path d="M7584 3442 c-293 -188 -489 -346 -760 -617 -116 -115 -264 -273 -330
-351 -65 -77 -166 -196 -224 -265 -58 -68 -168 -195 -245 -283 -353 -401 -575
-672 -575 -701 0 -11 21 -8 91 11 214 57 423 149 654 289 178 107 324 218 495
378 139 129 176 168 329 345 260 301 464 642 615 1027 37 94 71 180 77 193 11
28 12 52 2 51 -5 0 -62 -35 -129 -77z"/>
</g>
</svg>
